<svg version="1" xmlns="http://www.w3.org/2000/svg" width="400" height="400" viewBox="0 0 300 300"><g fill="#353535">
    <path d="M69.2 3c-2.8 2.6-3.1 4.4-3.5 16l-.2 9.5-24.1.5-24.1.5-4.9 3c-3 1.9-6 4.9-7.9 7.9l-3 4.9-.3 117.6L1 280.4l2.5 5.3c2.9 5.8 7.9 10.3 14 12.4 3.3 1.2 25.5 1.4 133.5 1.4h129.5l4.7-2.3c5.3-2.6 10.2-7.7 12.7-13.1 1.4-3.3 1.6-14.7 1.6-120.1 0-104.6-.2-116.9-1.6-120-2.4-5.2-6.6-9.8-11.3-12.3-3.8-2-5.8-2.2-28.1-2.7l-24-.5-.3-11.1c-.2-10.2-.5-11.4-2.7-13.8-3-3.2-9.1-3.6-12.6-.7-2.2 1.8-2.4 2.8-2.9 13.8l-.5 11.8h-56l-.5-11.8c-.5-11-.7-12-2.9-13.8-1.4-1.1-3.9-1.9-6.1-1.9-2.2 0-4.7.8-6.1 1.9-2.2 1.8-2.4 2.8-2.9 13.8l-.5 11.8-27.4.3c-21.3.2-27.7-.1-28.3-1-.5-.7-.8-3.8-.7-6.8.2-13.5 0-15-2.6-17.5C78.4.3 72.4.1 69.2 3zM66 58.1c0 10.9 0 11.1 2.9 14 3.1 3.1 6.4 3.6 10.4 1.8 3.9-1.8 4.9-4.8 5-16l.2-10.4 28.3-.3L141 47v11.1c0 10.9 0 11.1 2.9 14 3.7 3.7 7.9 3.8 12 .3l3.1-2.6V47h57v11.2c.1 11.7.6 13.4 4.7 15.6 3.7 2 7.3 1.4 10.4-1.7 2.9-2.9 2.9-3.1 2.9-14V47h21.5c20.2 0 21.6.1 23.5 2 2 2 2 3.3 2 115s0 113-2 115-3.3 2-129 2-127 0-129-2-2-3.3-2-115 0-113 2-115c1.9-1.9 3.3-2 23.5-2H66v11.1z"/>
    <path d="M66.2 126.7l.3 13.8 18.3.3 18.2.2v-28H65.9l.3 13.7zm65.8.3v14l18.3-.2 18.2-.3.3-13.8.3-13.7H132v14zm65 0v14l18.3-.2 18.2-.3.3-13.8.3-13.7H197v14zM66.7 159.7c-.4.3-.7 6.6-.7 14V187h37v-28H85.2c-9.8 0-18.2.3-18.5.7zM132 173v14h37.1l-.3-13.8-.3-13.7-18.2-.3-18.3-.2v14zm65 0v14h37.1l-.3-13.8-.3-13.7-18.2-.3-18.3-.2v14zM66 220v14h37v-28H66v14zm66 0v14h37v-28h-37v14zm65 0v14h37v-28h-37v14z"/></g>
</svg>