<?xml version="1.0" encoding="iso-8859-1"?>
<!-- Generator: Adobe Illustrator 19.0.0, SVG Export Plug-In . SVG Version: 6.00 Build 0)  -->
<svg version="1.1" id="Layer_1" xmlns="http://www.w3.org/2000/svg" xmlns:xlink="http://www.w3.org/1999/xlink" x="0px" y="0px"
	 viewBox="0 0 512 512" style="enable-background:new 0 0 512 512;" xml:space="preserve">
<path style="fill:#C1D354;" d="M512,256c0,141.389-114.616,256-256.003,256S0,397.389,0,256C0,114.609,114.611,0,255.997,0
	S512,114.609,512,256z"/>
<path style="fill:#9DB138;" d="M511.219,274.97L383.997,147.743h-9.405c-1.677-3.986-5.632-6.764-10.204-6.764
	c-4.608,0-8.517,2.778-10.24,6.764h-6.546c-1.677-3.986-5.632-6.764-10.204-6.764c-4.608,0-8.517,2.778-10.232,6.764h-6.554
	c-1.677-3.986-5.632-6.764-10.196-6.764c-4.572,0-8.525,2.778-10.24,6.764h-6.51c-1.72-3.986-5.668-6.764-10.24-6.764
	s-8.525,2.778-10.24,6.764h-6.51c-1.72-3.986-5.632-6.764-10.237-6.764c-4.572,0-8.527,2.778-10.24,6.764h-6.51
	c-1.684-3.986-5.632-6.764-10.204-6.764c-4.608,0-8.522,2.778-10.24,6.764h-6.546c-1.684-3.986-5.632-6.764-10.204-6.764
	c-4.608,0-8.522,2.778-10.24,6.764h-6.51c-1.72-3.986-5.668-6.764-10.24-6.764c-4.608,0-8.52,2.778-10.24,6.764h-6.51
	c-1.718-3.986-5.668-6.764-10.24-6.764s-8.52,2.778-10.24,6.764h-10.276v223.273l140.639,140.659
	C397.832,505.393,501.811,403.333,511.219,274.97z"/>
<rect x="127.997" y="147.743" style="fill:#FFFFFF;" width="256" height="223.283"/>
<rect x="127.997" y="319.846" style="fill:#FF8E31;" width="256" height="51.185"/>
<g>
	<rect x="214.323" y="183.552" style="fill:#CEE2F2;" width="22.088" height="15.462"/>
	<rect x="244.966" y="183.552" style="fill:#CEE2F2;" width="22.085" height="15.462"/>
	<rect x="275.584" y="183.552" style="fill:#CEE2F2;" width="22.08" height="15.462"/>
	<rect x="306.253" y="183.552" style="fill:#CEE2F2;" width="22.083" height="15.462"/>
	<rect x="336.87" y="183.552" style="fill:#CEE2F2;" width="22.093" height="15.462"/>
</g>
<g>
	<rect x="153.034" y="207.565" style="fill:#0684BA;" width="22.08" height="15.462"/>
	<rect x="183.68" y="207.565" style="fill:#0684BA;" width="22.077" height="15.462"/>
</g>
<g>
	<rect x="214.323" y="207.565" style="fill:#CEE2F2;" width="22.088" height="15.462"/>
	<rect x="244.966" y="207.565" style="fill:#CEE2F2;" width="22.085" height="15.462"/>
	<rect x="275.584" y="207.565" style="fill:#CEE2F2;" width="22.08" height="15.462"/>
	<rect x="306.253" y="207.565" style="fill:#CEE2F2;" width="22.083" height="15.462"/>
	<rect x="336.87" y="207.565" style="fill:#CEE2F2;" width="22.093" height="15.462"/>
</g>
<g>
	<rect x="153.034" y="231.578" style="fill:#0684BA;" width="22.08" height="15.462"/>
	<rect x="183.68" y="231.578" style="fill:#0684BA;" width="22.077" height="15.462"/>
</g>
<g>
	<rect x="214.323" y="231.578" style="fill:#CEE2F2;" width="22.088" height="15.462"/>
	<rect x="244.966" y="231.578" style="fill:#CEE2F2;" width="22.085" height="15.462"/>
	<rect x="275.584" y="231.578" style="fill:#CEE2F2;" width="22.08" height="15.462"/>
	<rect x="306.253" y="231.578" style="fill:#CEE2F2;" width="22.083" height="15.462"/>
	<rect x="336.87" y="231.578" style="fill:#CEE2F2;" width="22.093" height="15.462"/>
</g>
<g>
	<rect x="153.034" y="255.59" style="fill:#0684BA;" width="22.08" height="15.462"/>
	<rect x="183.68" y="255.59" style="fill:#0684BA;" width="22.077" height="15.462"/>
</g>
<g>
	<rect x="214.323" y="255.59" style="fill:#CEE2F2;" width="22.088" height="15.462"/>
	<rect x="244.966" y="255.59" style="fill:#CEE2F2;" width="22.085" height="15.462"/>
	<rect x="275.584" y="255.59" style="fill:#CEE2F2;" width="22.08" height="15.462"/>
	<rect x="306.253" y="255.59" style="fill:#CEE2F2;" width="22.083" height="15.462"/>
	<rect x="336.87" y="255.59" style="fill:#CEE2F2;" width="22.093" height="15.462"/>
</g>
<g>
	<rect x="153.034" y="279.629" style="fill:#0684BA;" width="22.08" height="15.462"/>
	<rect x="183.68" y="279.629" style="fill:#0684BA;" width="22.077" height="15.462"/>
</g>
<g>
	<rect x="214.323" y="279.629" style="fill:#CEE2F2;" width="22.088" height="15.462"/>
	<rect x="244.966" y="279.629" style="fill:#CEE2F2;" width="22.085" height="15.462"/>
</g>
<polygon style="fill:#FFFFFF;" points="346.079,371.026 346.079,333.12 383.997,333.12 "/>
<polygon style="fill:#F28124;" points="383.997,333.12 383.997,371.026 346.079,371.026 "/>
<g>
	<path style="fill:#34495E;" d="M148.518,145.18c2.156,0,4.081,1.009,5.345,2.563h4.872c-1.69-3.978-5.637-6.771-10.217-6.771
		c-6.131,0-11.121,4.995-11.121,11.116c0,6.134,4.989,11.121,11.121,11.121v-4.206c-3.817,0-6.917-3.1-6.917-6.915
		C141.601,148.28,144.701,145.18,148.518,145.18z"/>
	<path style="fill:#34495E;" d="M175.498,145.18c2.166,0,4.076,1.009,5.348,2.563h4.877c-1.695-3.978-5.647-6.771-10.225-6.771
		c-6.124,0-11.121,4.995-11.121,11.116c0,6.134,4.997,11.121,11.121,11.121v-4.206c-3.809,0-6.912-3.1-6.912-6.915
		C168.586,148.28,171.689,145.18,175.498,145.18z"/>
	<path style="fill:#34495E;" d="M202.478,145.18c2.168,0,4.088,1.009,5.353,2.563h4.882c-1.7-3.978-5.647-6.771-10.235-6.771
		c-6.124,0-11.11,4.995-11.11,11.116c0,6.134,4.987,11.121,11.11,11.121v-4.206c-3.807,0-6.899-3.1-6.899-6.915
		C195.576,148.28,198.671,145.18,202.478,145.18z"/>
	<path style="fill:#34495E;" d="M229.46,145.18c2.166,0,4.083,1.009,5.356,2.563h4.869c-1.7-3.978-5.64-6.771-10.225-6.771
		c-6.126,0-11.11,4.995-11.11,11.116c0,6.134,4.987,11.121,11.11,11.121v-4.206c-3.807,0-6.912-3.1-6.912-6.915
		C222.551,148.28,225.654,145.18,229.46,145.18z"/>
	<path style="fill:#34495E;" d="M256.443,145.18c2.163,0,4.086,1.009,5.356,2.563h4.874c-1.708-3.978-5.647-6.771-10.232-6.771
		c-6.121,0-11.11,4.995-11.11,11.116c0,6.134,4.989,11.121,11.11,11.121v-4.206c-3.809,0-6.897-3.1-6.897-6.915
		C249.546,148.28,252.634,145.18,256.443,145.18z"/>
	<path style="fill:#34495E;" d="M283.425,145.18c2.156,0,4.081,1.009,5.353,2.563h4.872c-1.705-3.978-5.64-6.771-10.225-6.771
		c-6.126,0-11.11,4.995-11.11,11.116c0,6.134,4.984,11.121,11.11,11.121v-4.206c-3.807,0-6.897-3.1-6.897-6.915
		C276.529,148.28,279.619,145.18,283.425,145.18z"/>
	<path style="fill:#34495E;" d="M310.415,145.18c2.156,0,4.073,1.009,5.345,2.563h4.874c-1.7-3.978-5.64-6.771-10.22-6.771
		c-6.131,0-11.118,4.995-11.118,11.116c0,6.134,4.987,11.121,11.118,11.121v-4.206c-3.812,0-6.902-3.1-6.902-6.915
		C303.514,148.28,306.604,145.18,310.415,145.18z"/>
	<path style="fill:#34495E;" d="M337.398,145.18c2.158,0,4.076,1.009,5.353,2.563h4.874c-1.708-3.978-5.647-6.771-10.227-6.771
		c-6.124,0-11.126,4.995-11.126,11.116c0,6.134,5.002,11.121,11.126,11.121v-4.206c-3.82,0-6.909-3.1-6.909-6.915
		C330.488,148.28,333.578,145.18,337.398,145.18z"/>
	<path style="fill:#34495E;" d="M364.375,145.18c2.163,0,4.088,1.009,5.35,2.563h4.874c-1.7-3.978-5.64-6.771-10.225-6.771
		c-6.126,0-11.113,4.995-11.113,11.116c0,6.134,4.987,11.121,11.113,11.121v-4.206c-3.799,0-6.912-3.1-6.912-6.915
		C357.463,148.28,360.576,145.18,364.375,145.18z"/>
</g>
<g>
</g>
<g>
</g>
<g>
</g>
<g>
</g>
<g>
</g>
<g>
</g>
<g>
</g>
<g>
</g>
<g>
</g>
<g>
</g>
<g>
</g>
<g>
</g>
<g>
</g>
<g>
</g>
<g>
</g>
</svg>
